# xmcd CD database file
#
# Track frame offsets:
#	150
#	56514
#	82964
#	133240
#
# Disc length: 2259 seconds
#
# Revision: 1
# Processed by: cddbd v1.5.1PL2 Copyright (c) Steve Scherf et al.
# Submitted via: CDex 1.51
#
DISCID=2e08d104
DTITLE=Kenny Dorham - Trompeta Toccata
DYEAR=1964
DGENRE=Jazz
TTITLE0=Trompeta Toccata
TTITLE1=Night Watch
TTITLE2=Mamacita
TTITLE3=The Fox
EXTD=YEAR: 1964
EXTT0=
EXTT1=
EXTT2=
EXTT3=
PLAYORDER=
